<svg width="100" height="100" viewBox="0 0 100 100" fill="none" xmlns="http://www.w3.org/2000/svg">
<path d="M88.6406 29.0625C81.3125 24.5469 76.2812 36.5312 69.75 34.7031C67.6094 34.1094 69.7812 30.7031 66.2656 30.8594C57.0938 31.2656 58.3437 36.0625 52.7031 35.0937C46.875 34.0937 48.6094 31.2031 43 25.9844C40.9531 25.2969 36.4531 23.9375 38.4531 21.1094C40.7031 20.6719 40.1875 18.3594 39.4219 16.875C39.1094 14.4844 43.875 14.0469 43.7656 11.625C43.625 8.18749 38.0156 10.9687 36.375 10.6094C32.7344 9.81249 31.6875 4.96874 27.3594 6.28124C21.8437 8.01561 20.9062 7.85936 23.6875 10.7969C24.75 11.9062 25.1562 13.4687 24.8906 14.9687C23.625 21.8906 31 16.3594 25.3437 25.8906C24.7969 26.8125 24.0312 27.5625 23.2344 28.2656C20.5469 30.5937 19.9062 35.2344 15.4531 34.4375C10.2344 35.7031 17.9844 41.625 15.625 45.0937C14.5937 46.6875 12.125 43.5937 10.2187 46.1562C8.42187 48.5781 12.125 49.4219 14.0156 50.2187C14.9687 50.6094 15.1562 51.9375 14.3594 52.5781L14.3281 52.6094C13.6094 53.1719 13.6094 54.2969 14.2969 54.8906C18.8906 58.8594 19.4375 51.3281 22.7344 53.0156C23.4062 53.8594 22.5 54.9844 21.9062 55.8906C20.4844 58.0625 21 60.9687 21.8281 63.4219C23.3125 66.6719 23.625 69.9375 23.2031 73.3281C23.5 74.5 24.75 75.2031 25.2812 76.2812C28.375 87.7187 32 100.375 39.0625 89.375C40.9687 86.3906 42.0469 82.9375 42.2656 79.4062C42.9844 67.4062 53.0469 74.6875 54.7812 63.6875C55.1875 61.0937 56.5469 59.375 57.9687 58.625C59.4062 57.875 60.7656 56.9844 61.7812 55.7187C63.9531 53.0312 64.4531 54.6875 68.0938 53.2656C69.9531 50.9687 65.7656 49.0937 66.6406 46.9687C67.6406 44.5312 65.5938 43.3281 66.5781 41.2812C67.5781 39.1875 70.1875 41.2812 71.7031 41.7344C72.6562 41.9687 74.0156 41.6875 75.0312 41.625C77.2969 41.4844 77.125 43.6562 76.25 44.4375C75.4219 45.1719 73.1562 46.1094 72.7031 47.2812C74.5 47.1875 74.9531 47.7656 76.0469 48.0156C76.7656 48.1875 77.4219 48.6094 77.7031 49.2969C78.3594 50.8594 80.4219 52.2031 82.4688 52.1094C82.875 49.625 80.5156 45.3281 83.3281 44.0937C85.3438 42.3906 83.125 38.8594 84.3125 36.5156C85.7969 34.1406 92.7188 32.5 88.6406 29.0156V29.0625Z" fill="black"/>
</svg>
