<svg width="33" height="33" viewBox="0 0 33 33" fill="none" xmlns="http://www.w3.org/2000/svg">
<g clip-path="url(#clip0_126_485)">
<path d="M26.125 22.6875V3.4375C26.125 2.52582 25.7628 1.65148 25.1182 1.00682C24.4735 0.362164 23.5992 0 22.6875 0L10.3125 0C9.40082 0 8.52648 0.362164 7.88182 1.00682C7.23716 1.65148 6.875 2.52582 6.875 3.4375V28.1875C6.875 29.0992 7.23716 29.9735 7.88182 30.6182C8.52648 31.2628 9.40082 31.625 10.3125 31.625H14.6369L16.0531 32.835C16.1917 32.9535 16.3717 33.0121 16.5535 32.998C16.7353 32.9838 16.904 32.898 17.0225 32.7594C17.141 32.6208 17.1996 32.4408 17.1855 32.259C17.1713 32.0772 17.0855 31.9085 16.9469 31.79L12.8219 28.2425C12.7143 28.1482 12.6427 28.0196 12.6192 27.8785C12.5958 27.7374 12.6219 27.5926 12.6932 27.4686C12.7646 27.3446 12.8766 27.2492 13.0104 27.1985C13.1441 27.1478 13.2913 27.145 13.4269 27.1906L16.28 28.1875C16.3834 28.2216 16.4934 28.2306 16.601 28.2139C16.7085 28.1972 16.8106 28.1551 16.8988 28.0913C16.9925 28.0247 17.068 27.9357 17.1185 27.8324C17.1689 27.7291 17.1926 27.6148 17.1875 27.5V18.5625C17.1875 18.3802 17.2599 18.2053 17.3889 18.0764C17.5178 17.9474 17.6927 17.875 17.875 17.875C18.0573 17.875 18.2322 17.9474 18.3611 18.0764C18.4901 18.2053 18.5625 18.3802 18.5625 18.5625V26.125C18.5625 26.3073 18.6349 26.4822 18.7639 26.6111C18.8928 26.7401 19.0677 26.8125 19.25 26.8125C19.4323 26.8125 19.6072 26.7401 19.7361 26.6111C19.8651 26.4822 19.9375 26.3073 19.9375 26.125V23.375C19.9375 23.1927 20.0099 23.0178 20.1389 22.8889C20.2678 22.7599 20.4427 22.6875 20.625 22.6875C20.8073 22.6875 20.9822 22.7599 21.1111 22.8889C21.2401 23.0178 21.3125 23.1927 21.3125 23.375V26.125C21.3125 26.3073 21.3849 26.4822 21.5139 26.6111C21.6428 26.7401 21.8177 26.8125 22 26.8125C22.1823 26.8125 22.3572 26.7401 22.4861 26.6111C22.6151 26.4822 22.6875 26.3073 22.6875 26.125V24.0625C22.6875 23.8802 22.7599 23.7053 22.8889 23.5764C23.0178 23.4474 23.1927 23.375 23.375 23.375C23.5573 23.375 23.7322 23.4474 23.8611 23.5764C23.9901 23.7053 24.0625 23.8802 24.0625 24.0625V26.125C24.0625 26.3073 24.1349 26.4822 24.2639 26.6111C24.3928 26.7401 24.5677 26.8125 24.75 26.8125C24.9323 26.8125 25.1072 26.7401 25.2361 26.6111C25.3651 26.4822 25.4375 26.3073 25.4375 26.125V24.75C25.4375 24.5677 25.5099 24.3928 25.6389 24.2639C25.7678 24.1349 25.9427 24.0625 26.125 24.0625C26.3073 24.0625 26.4822 24.1349 26.6111 24.2639C26.7401 24.3928 26.8125 24.5677 26.8125 24.75V32.3125C26.8125 32.4948 26.8849 32.6697 27.0139 32.7986C27.1428 32.9276 27.3177 33 27.5 33C27.6823 33 27.8572 32.9276 27.9861 32.7986C28.1151 32.6697 28.1875 32.4948 28.1875 32.3125V24.75C28.1875 24.203 27.9702 23.6784 27.5834 23.2916C27.1966 22.9048 26.672 22.6875 26.125 22.6875ZM19.9375 1.375V2.0625C19.9375 2.24484 19.8651 2.4197 19.7361 2.54864C19.6072 2.67757 19.4323 2.75 19.25 2.75H13.75C13.5677 2.75 13.3928 2.67757 13.2639 2.54864C13.1349 2.4197 13.0625 2.24484 13.0625 2.0625V1.375H19.9375ZM17.875 16.5C17.4495 16.5012 17.0347 16.634 16.6876 16.8801C16.3405 17.1263 16.0781 17.4738 15.9363 17.875H11.6875V17.1875C11.6875 16.5555 11.812 15.9297 12.0538 15.3458C12.2957 14.762 12.6502 14.2314 13.097 13.7845C13.5439 13.3377 14.0745 12.9832 14.6583 12.7413C15.2422 12.4995 15.868 12.375 16.5 12.375C17.132 12.375 17.7578 12.4995 18.3417 12.7413C18.9255 12.9832 19.4561 13.3377 19.903 13.7845C20.3498 14.2314 20.7043 14.762 20.9462 15.3458C21.188 15.9297 21.3125 16.5555 21.3125 17.1875V17.875H19.8138C19.6719 17.4738 19.4095 17.1263 19.0624 16.8801C18.7153 16.634 18.3005 16.5012 17.875 16.5ZM23.375 22C23.0198 22.0013 22.6712 22.0961 22.3644 22.275C22.1142 21.8814 21.7381 21.5842 21.2974 21.4319C20.8566 21.2796 20.3773 21.2811 19.9375 21.4363V19.25H22.6875C22.8698 19.25 23.0447 19.1776 23.1736 19.0486C23.3026 18.9197 23.375 18.7448 23.375 18.5625C23.375 18.3802 23.3026 18.2053 23.1736 18.0764C23.0447 17.9474 22.8698 17.875 22.6875 17.875V17.1875C22.6868 15.666 22.1255 14.1981 21.1109 13.0643C20.0963 11.9305 18.6996 11.2103 17.1875 11.0412V10.3125C17.1875 10.1302 17.1151 9.9553 16.9861 9.82636C16.8572 9.69743 16.6823 9.625 16.5 9.625C16.3177 9.625 16.1428 9.69743 16.0139 9.82636C15.8849 9.9553 15.8125 10.1302 15.8125 10.3125V11.0412C14.3004 11.2103 12.9037 11.9305 11.8891 13.0643C10.8745 14.1981 10.3132 15.666 10.3125 17.1875V17.875C10.1302 17.875 9.9553 17.9474 9.82636 18.0764C9.69743 18.2053 9.625 18.3802 9.625 18.5625C9.625 18.7448 9.69743 18.9197 9.82636 19.0486C9.9553 19.1776 10.1302 19.25 10.3125 19.25H15.8125V26.5444L13.8325 25.8569C13.395 25.7109 12.9205 25.7211 12.4897 25.8857C12.0589 26.0503 11.6985 26.3592 11.4699 26.7597C11.2413 27.1602 11.1586 27.6276 11.2358 28.0822C11.3131 28.5369 11.5456 28.9507 11.8937 29.2531L13.0625 30.25H10.3125C9.76549 30.25 9.24089 30.0327 8.85409 29.6459C8.4673 29.2591 8.25 28.7345 8.25 28.1875V3.4375C8.25 2.89049 8.4673 2.36589 8.85409 1.97909C9.24089 1.5923 9.76549 1.375 10.3125 1.375H11.6875V2.0625C11.6875 2.60951 11.9048 3.13411 12.2916 3.52091C12.6784 3.9077 13.203 4.125 13.75 4.125H19.25C19.797 4.125 20.3216 3.9077 20.7084 3.52091C21.0952 3.13411 21.3125 2.60951 21.3125 2.0625V1.375H22.6875C23.2345 1.375 23.7591 1.5923 24.1459 1.97909C24.5327 2.36589 24.75 2.89049 24.75 3.4375V22.5362C24.3735 22.194 23.8838 22.003 23.375 22Z" fill="#C33130"/>
</g>
<defs>
<clipPath id="clip0_126_485">
<rect width="33" height="33" fill="white"/>
</clipPath>
</defs>
</svg>
