<svg width="100" height="100" viewBox="0 0 100 100" fill="none" xmlns="http://www.w3.org/2000/svg">
<path d="M12.3109 36.6516C15.3276 41.3182 18.6532 45.7777 22.2656 50H24.9672C24.6267 48.0487 24.1426 46.1253 23.5188 44.2453C21.1335 37.2714 16.9749 31.0381 11.4516 26.1578L13.5484 23.8422C19.4712 29.0809 23.9283 35.771 26.4813 43.2547C26.8938 44.4844 27.2328 45.7453 27.5344 47.0187C27.675 46.7625 27.8203 46.5094 27.9438 46.2375C31.4609 38.425 29.7516 25.9844 22.2766 21.6687C20.482 20.7425 18.5183 20.1898 16.5041 20.0439C14.4899 19.8981 12.4671 20.1622 10.5578 20.8203C9.68673 21.0412 8.8703 21.4387 8.15912 21.988C7.44794 22.5374 6.85718 23.227 6.42344 24.0141C5.59375 26.1094 7.87188 29.7875 12.3109 36.6516ZM48.3422 34.8109C48.224 33.8681 47.9883 32.9437 47.6406 32.0594C45.2047 25.8781 38.0953 22.4328 33.8359 23.7016C32.4375 24.1732 31.2308 25.0875 30.3984 26.3062C33.2762 32.5754 33.6024 39.7181 31.3078 46.2234C31.3969 46.1141 31.5031 46.0172 31.5906 45.9109C34.91 41.6185 36.9614 36.4825 37.5125 31.0844L40.6188 31.425C40.0128 37.4088 37.7329 43.1008 34.0406 47.8484C33.4453 48.6016 32.7906 49.3094 32.1219 50.0047H39.3281L39.4578 49.9437C38.6384 46.7594 39.1133 43.3802 40.7789 40.5451C42.4444 37.7101 45.1649 35.6501 48.3453 34.8156L48.3422 34.8109ZM76.875 50H92.5234C91.5282 48.5581 90.1344 47.4374 88.5125 46.775C87.4536 46.4179 86.3481 46.2178 85.2313 46.1812C83.7969 46.075 82.1703 45.9531 81.4172 44.4484C80.6359 42.8703 81.7031 41.5406 82.5594 40.4703C83.4298 39.5247 84.0661 38.3879 84.4172 37.1516C85.1891 33.7844 85.1984 28.1328 82.0484 26.3609C81.3164 25.9873 80.5166 25.7649 79.6968 25.7069C78.877 25.6489 78.0539 25.7566 77.2766 26.0234C74.9317 26.7276 72.9403 28.2935 71.7031 30.4062C70.4859 32.7594 71.1969 35.3687 71.8844 37.8891C72.5719 40.4094 73.2906 43.0594 71.3969 44.8781C69.4734 46.7297 66.6641 45.9719 63.9437 45.2297C64.1738 46.8229 64.0748 48.4464 63.6531 50H73.6984C74.0848 47.7854 74.5323 45.582 75.0406 43.3922C75.9202 39.6509 76.9772 35.9535 78.2078 32.3125L81.1672 33.3125C79.9692 36.8601 78.9404 40.4626 78.0844 44.1078C77.6312 46.0613 77.2279 48.026 76.875 50Z" fill="black"/>
<path d="M60.3969 50C60.6835 49.1916 60.8545 48.3468 60.9047 47.4906L58.3063 48.3563L57.3187 45.3875L60.5719 44.3031C60.0835 42.6043 59.1255 41.0778 57.8082 39.8992C56.4908 38.7206 54.8675 37.9377 53.125 37.6406V40.625H50V37.6406C48.5052 37.8961 47.0945 38.5098 45.8885 39.4292C44.6825 40.3487 43.7172 41.5465 43.075 42.9203L45.8062 43.8312L44.8187 46.8L42.2359 45.9375C42.2042 46.249 42.188 46.5619 42.1875 46.875C42.1854 47.9401 42.3683 48.9975 42.7281 50H60.3969ZM50 43.75H53.125V46.875H50V43.75ZM18.2078 50C16.4599 47.8708 14.7771 45.675 13.1594 43.4125C11.7313 43.8879 10.3491 44.4914 9.02969 45.2156C7.95819 45.6815 7.08633 46.5119 6.56875 47.5594C6.25004 48.3314 6.16528 49.1802 6.325 50H18.2078ZM6.27812 53.125C6.69481 64.0318 11.3174 74.3538 19.177 81.9273C27.0366 89.5008 37.5228 93.7378 48.4375 93.75H51.5625C62.4772 93.7378 72.9634 89.5008 80.823 81.9273C88.6826 74.3538 93.3052 64.0318 93.7219 53.125H6.27812ZM32.1328 85.7812C24.7414 82.2139 18.5432 76.5796 14.2891 69.5609L16.9609 67.9391C20.9026 74.4416 26.6448 79.6622 33.4922 82.9688L32.1328 85.7812ZM39.0625 87.5H35.9375V84.375H39.0625V87.5ZM73.4375 12.5V9.375H67.1875C63.8723 9.375 60.6929 10.692 58.3487 13.0362C56.0045 15.3804 54.6875 18.5598 54.6875 21.875V25H60.9375C64.2527 25 67.4321 23.683 69.7763 21.3388C72.1205 18.9946 73.4375 15.8152 73.4375 12.5Z" fill="black"/>
<path d="M43.75 15.625C45.4759 15.625 46.875 14.2259 46.875 12.5C46.875 10.7741 45.4759 9.375 43.75 9.375C42.0241 9.375 40.625 10.7741 40.625 12.5C40.625 14.2259 42.0241 15.625 43.75 15.625Z" fill="black"/>
<path d="M23.4375 10.9375C25.1634 10.9375 26.5625 9.53839 26.5625 7.8125C26.5625 6.08661 25.1634 4.6875 23.4375 4.6875C21.7116 4.6875 20.3125 6.08661 20.3125 7.8125C20.3125 9.53839 21.7116 10.9375 23.4375 10.9375Z" fill="black"/>
</svg>
