<svg width="100" height="100" viewBox="0 0 100 100" fill="none" xmlns="http://www.w3.org/2000/svg">
<g clip-path="url(#clip0_1_1255)">
<path d="M50 0.390625C49.2748 0.390625 48.5793 0.67871 48.0665 1.1915C47.5537 1.7043 47.2656 2.3998 47.2656 3.125V15.625C47.2656 16.3502 47.5537 17.0457 48.0665 17.5585C48.5793 18.0713 49.2748 18.3594 50 18.3594C50.7252 18.3594 51.4207 18.0713 51.9335 17.5585C52.4463 17.0457 52.7344 16.3502 52.7344 15.625V3.125C52.7344 2.3998 52.4463 1.7043 51.9335 1.1915C51.4207 0.67871 50.7252 0.390625 50 0.390625ZM35.9375 8.20312C35.2123 8.20312 34.5168 8.49121 34.004 9.00401C33.4912 9.5168 33.2031 10.2123 33.2031 10.9375V20.3125C33.2031 21.0377 33.4912 21.7332 34.004 22.246C34.5168 22.7588 35.2123 23.0469 35.9375 23.0469C36.6627 23.0469 37.3582 22.7588 37.871 22.246C38.3838 21.7332 38.6719 21.0377 38.6719 20.3125V10.9375C38.6719 10.2123 38.3838 9.5168 37.871 9.00401C37.3582 8.49121 36.6627 8.20312 35.9375 8.20312ZM64.0625 8.20312C63.3373 8.20312 62.6418 8.49121 62.129 9.00401C61.6162 9.5168 61.3281 10.2123 61.3281 10.9375V20.3125C61.3281 21.0377 61.6162 21.7332 62.129 22.246C62.6418 22.7588 63.3373 23.0469 64.0625 23.0469C64.7877 23.0469 65.4832 22.7588 65.996 22.246C66.5088 21.7332 66.7969 21.0377 66.7969 20.3125V10.9375C66.7969 10.2123 66.5088 9.5168 65.996 9.00401C65.4832 8.49121 64.7877 8.20312 64.0625 8.20312ZM0.390625 89.8438C0.390625 92.4338 1.4195 94.9177 3.25091 96.7491C5.08232 98.5805 7.56625 99.6094 10.1562 99.6094H89.8438C92.4338 99.6094 94.9177 98.5805 96.7491 96.7491C98.5805 94.9177 99.6094 92.4338 99.6094 89.8438C99.609 89.1187 99.3207 88.4234 98.808 87.9107C98.2953 87.398 97.6001 87.1098 96.875 87.1094H3.125C2.39993 87.1098 1.70467 87.398 1.19196 87.9107C0.679257 88.4234 0.391039 89.1187 0.390625 89.8438ZM93.3594 81.6406V81.25C93.3594 69.7504 88.7912 58.7218 80.6597 50.5903C72.5282 42.4588 61.4996 37.8906 50 37.8906C38.5004 37.8906 27.4718 42.4588 19.3403 50.5903C11.2088 58.7218 6.64062 69.7504 6.64062 81.25V81.6406H93.3594ZM50 32.4219C52.0897 32.4216 54.1773 32.5547 56.25 32.8203V31.6406C56.25 29.983 55.5915 28.3933 54.4194 27.2212C53.2473 26.0491 51.6576 25.3906 50 25.3906C48.3424 25.3906 46.7527 26.0491 45.5806 27.2212C44.4085 28.3933 43.75 29.983 43.75 31.6406V32.8203C45.8227 32.5547 47.9103 32.4216 50 32.4219Z" fill="black"/>
</g>
<defs>
<clipPath id="clip0_1_1255">
<rect width="100" height="100" fill="white"/>
</clipPath>
</defs>
</svg>
