<svg width="31" height="31" viewBox="0 0 31 31" fill="none" xmlns="http://www.w3.org/2000/svg">
<path d="M28.5781 13.5624H28.5539C28.4401 11.2299 27.5274 9.00743 25.9689 7.26816C24.4105 5.52889 22.3012 4.37867 19.995 4.01057C20.1977 3.72012 20.317 3.37965 20.3397 3.02618C20.3625 2.67271 20.288 2.31976 20.1242 2.0057C19.9604 1.69164 19.7136 1.42849 19.4108 1.24485C19.1079 1.06121 18.7605 0.964111 18.4062 0.964111C18.052 0.964111 17.7046 1.06121 17.4017 1.24485C17.0989 1.42849 16.8521 1.69164 16.6883 2.0057C16.5245 2.31976 16.45 2.67271 16.4728 3.02618C16.4955 3.37965 16.6148 3.72012 16.8175 4.01057C14.5113 4.37867 12.402 5.52889 10.8436 7.26816C9.28509 9.00743 8.37237 11.2299 8.25859 13.5624H8.23438C7.84898 13.5624 7.47937 13.7155 7.20686 13.9881C6.93435 14.2606 6.78125 14.6302 6.78125 15.0156C6.78125 15.401 6.93435 15.7706 7.20686 16.0431C7.47937 16.3156 7.84898 16.4687 8.23438 16.4687H8.37L9.22734 19.0456C9.26071 19.1412 9.32284 19.2242 9.40522 19.2832C9.4876 19.3421 9.5862 19.3742 9.6875 19.3749H27.125C27.2263 19.3742 27.3249 19.3421 27.4073 19.2832C27.4897 19.2242 27.5518 19.1412 27.5852 19.0456L28.4425 16.4687H28.5781C28.9635 16.4687 29.3331 16.3156 29.6056 16.0431C29.8782 15.7706 30.0312 15.401 30.0312 15.0156C30.0312 14.6302 29.8782 14.2606 29.6056 13.9881C29.3331 13.7155 28.9635 13.5624 28.5781 13.5624ZM18.4062 1.93744C18.5979 1.93744 18.7851 1.99426 18.9445 2.1007C19.1038 2.20715 19.2279 2.35845 19.3013 2.53547C19.3746 2.71248 19.3938 2.90727 19.3564 3.09518C19.319 3.2831 19.2267 3.45572 19.0913 3.5912C18.9558 3.72668 18.7832 3.81895 18.5952 3.85633C18.4073 3.89371 18.2125 3.87452 18.0355 3.8012C17.8585 3.72788 17.7072 3.60371 17.6008 3.4444C17.4943 3.28509 17.4375 3.09779 17.4375 2.90619C17.4383 2.6495 17.5406 2.40354 17.7221 2.22203C17.9036 2.04052 18.1496 1.93821 18.4062 1.93744ZM18.4062 4.84369C20.7621 4.84685 23.0273 5.75225 24.7362 7.37383C26.4452 8.99541 27.4682 11.21 27.5948 13.5624H9.21766C9.34435 11.21 10.3673 8.99541 12.0763 7.37383C13.7852 5.75225 16.0504 4.84685 18.4062 4.84369ZM26.7762 18.4062H10.0362L9.39203 16.4687H27.4205L26.7762 18.4062ZM28.5781 15.4999H8.23438C8.10591 15.4999 7.98271 15.4489 7.89187 15.3581C7.80103 15.2672 7.75 15.144 7.75 15.0156C7.75 14.8871 7.80103 14.7639 7.89187 14.6731C7.98271 14.5822 8.10591 14.5312 8.23438 14.5312H28.5781C28.7066 14.5312 28.8298 14.5822 28.9206 14.6731C29.0115 14.7639 29.0625 14.8871 29.0625 15.0156C29.0625 15.144 29.0115 15.2672 28.9206 15.3581C28.8298 15.4489 28.7066 15.4999 28.5781 15.4999ZM30.1039 21.7484C29.8468 21.3041 29.4242 20.9798 28.9286 20.8463C28.4329 20.7129 27.9046 20.7812 27.4592 21.0363L22.7366 23.7634C22.4787 23.377 22.0899 23.0966 21.6419 22.9738L14.415 21.0412C13.8588 20.8911 13.2735 20.8861 12.7148 21.0267L10.1719 21.6612V20.8281C10.1719 20.6996 10.1208 20.5764 10.03 20.4856C9.93917 20.3947 9.81596 20.3437 9.6875 20.3437H5.8125C5.68404 20.3437 5.56083 20.3947 5.47 20.4856C5.37916 20.5764 5.32812 20.6996 5.32812 20.8281V21.3124H1.9375C1.80904 21.3124 1.68583 21.3635 1.595 21.4543C1.50416 21.5451 1.45313 21.6683 1.45312 21.7968V28.5781C1.45313 28.7065 1.50416 28.8297 1.595 28.9206C1.68583 29.0114 1.80904 29.0624 1.9375 29.0624H5.32812V29.5468C5.32812 29.6753 5.37916 29.7985 5.47 29.8893C5.56083 29.9802 5.68404 30.0312 5.8125 30.0312H9.6875C9.81596 30.0312 9.93917 29.9802 10.03 29.8893C10.1208 29.7985 10.1719 29.6753 10.1719 29.5468V28.8784L10.7967 29.1884C11.2678 29.4229 11.7866 29.5455 12.3128 29.5468H19.5639C20.1594 29.5481 20.7445 29.391 21.2592 29.0915L29.3967 24.3931C29.84 24.135 30.1631 23.712 30.2956 23.2165C30.4281 22.721 30.3592 22.1932 30.1039 21.7484ZM5.32812 28.0937H2.42188V22.2812H5.32812V28.0937ZM9.20312 29.0624H6.29688V21.3124H9.20312V29.0624ZM28.9123 23.5551L20.7748 28.2535C20.4068 28.4665 19.9891 28.5785 19.5639 28.5781H12.3128C11.936 28.5788 11.5643 28.4909 11.2278 28.3213L10.1719 27.7934V22.659L12.9473 21.9663C13.3467 21.8654 13.7654 21.8687 14.1631 21.976L21.39 23.9135C21.5759 23.9618 21.7432 24.0645 21.8704 24.2085C21.9976 24.3524 22.0789 24.5311 22.1038 24.7216C22.1288 24.912 22.0963 25.1056 22.0106 25.2775C21.9248 25.4494 21.7897 25.5918 21.6225 25.6863C21.5133 25.7507 21.3923 25.7925 21.2666 25.8092C21.141 25.8258 21.0133 25.817 20.8911 25.7832L15.1125 24.2332C14.9879 24.1998 14.8551 24.2173 14.7434 24.2818C14.6317 24.3463 14.5501 24.4525 14.5167 24.5771C14.4833 24.7017 14.5008 24.8345 14.5653 24.9462C14.6298 25.058 14.736 25.1395 14.8606 25.1729L20.6392 26.7181C20.8035 26.7623 20.9728 26.7851 21.143 26.7859C21.4819 26.7864 21.8147 26.696 22.1069 26.5243C22.3283 26.3979 22.5223 26.2287 22.6778 26.0267C22.8333 25.8246 22.9471 25.5937 23.0127 25.3473C23.0664 25.1337 23.0844 24.9128 23.0659 24.6934L27.9436 21.8792C28.1662 21.7556 28.428 21.7234 28.6739 21.7894C28.9197 21.8554 29.1303 22.0144 29.2611 22.2328C29.3897 22.4545 29.4253 22.7181 29.3599 22.966C29.2945 23.2138 29.1336 23.4257 28.9123 23.5551Z" fill="#C33130"/>
<path d="M7.75 28.5781C7.87846 28.5781 8.00167 28.5271 8.09251 28.4363C8.18334 28.3454 8.23438 28.2222 8.23438 28.0938V27.6094C8.23438 27.4809 8.18334 27.3577 8.09251 27.2669C8.00167 27.176 7.87846 27.125 7.75 27.125C7.62154 27.125 7.49833 27.176 7.4075 27.2669C7.31666 27.3577 7.26562 27.4809 7.26562 27.6094V28.0938C7.26562 28.2222 7.31666 28.3454 7.4075 28.4363C7.49833 28.5271 7.62154 28.5781 7.75 28.5781ZM26.38 11.9883C26.0549 10.7434 25.4441 9.59136 24.596 8.62368C23.748 7.65601 22.6861 6.8993 21.4946 6.41361C21.4355 6.38858 21.372 6.37556 21.3077 6.3753C21.2435 6.37504 21.1799 6.38756 21.1206 6.41212C21.0612 6.43668 21.0074 6.47279 20.9621 6.51835C20.9169 6.56392 20.8811 6.61802 20.857 6.67753C20.8328 6.73703 20.8208 6.80074 20.8215 6.86495C20.8222 6.92916 20.8356 6.99259 20.8611 7.05156C20.8865 7.11052 20.9234 7.16383 20.9697 7.2084C21.0159 7.25297 21.0705 7.2879 21.1304 7.31116C22.1818 7.73975 23.1188 8.4075 23.8671 9.26142C24.6154 10.1153 25.1544 11.1319 25.4413 12.2305C25.4682 12.3344 25.5288 12.4265 25.6136 12.4923C25.6985 12.558 25.8028 12.5937 25.9102 12.5938C25.9512 12.5938 25.9921 12.5886 26.0318 12.5783C26.0934 12.5624 26.1513 12.5345 26.2021 12.4963C26.2529 12.4581 26.2958 12.4102 26.3281 12.3554C26.3604 12.3006 26.3817 12.24 26.3906 12.177C26.3995 12.114 26.3959 12.0499 26.38 11.9883ZM19.4351 5.87644C19.0938 5.83381 18.7502 5.81246 18.4062 5.8125C18.2778 5.8125 18.1546 5.86353 18.0637 5.95437C17.9729 6.04521 17.9219 6.16841 17.9219 6.29688C17.9219 6.42534 17.9729 6.54854 18.0637 6.63938C18.1546 6.73022 18.2778 6.78125 18.4062 6.78125C18.71 6.7812 19.0135 6.80013 19.3149 6.83792C19.335 6.8404 19.3552 6.8417 19.3755 6.8418C19.4992 6.84241 19.6185 6.79567 19.7088 6.71115C19.7992 6.62663 19.8537 6.51075 19.8614 6.38726C19.869 6.26378 19.8291 6.14207 19.7498 6.04708C19.6705 5.95209 19.5579 5.89104 19.4351 5.87644Z" fill="#C33130"/>
</svg>
