<svg width="100" height="100" viewBox="0 0 100 100" fill="none" xmlns="http://www.w3.org/2000/svg">
<g clip-path="url(#clip0_1_1265)">
<path d="M99.9823 33.3333H0V37.5C0 39.7101 0.877974 41.8298 2.44078 43.3926C4.00358 44.9554 6.1232 45.8333 8.33333 45.8333H20.8333C23.0435 45.8333 25.1631 44.9554 26.7259 43.3926C28.2887 41.8298 29.1667 39.7101 29.1667 37.5C29.1667 39.7101 30.0446 41.8298 31.6074 43.3926C33.1702 44.9554 35.2899 45.8333 37.5 45.8333H62.5C64.7101 45.8333 66.8298 44.9554 68.3926 43.3926C69.9554 41.8298 70.8333 39.7101 70.8333 37.5C70.8333 39.7101 71.7113 41.8298 73.2741 43.3926C74.8369 44.9554 76.9565 45.8333 79.1667 45.8333H91.6667C93.8768 45.8333 95.9964 44.9554 97.5592 43.3926C99.122 41.8298 100 39.7101 100 37.5V33.3333H99.9823ZM98.976 29.1667L91.5062 3.02083C91.2573 2.15045 90.7316 1.38482 90.0088 0.83978C89.286 0.294742 88.4053 -5.04847e-05 87.5 6.48491e-09H68.4156L74.249 29.1667H98.976ZM31.5844 6.48491e-09H12.5C11.5947 -5.04847e-05 10.714 0.294742 9.99119 0.83978C9.26836 1.38482 8.74271 2.15045 8.49375 3.02083L1.02396 29.1667H25.751L31.5844 6.48491e-09ZM59.9177 6.48491e-09H40.0823L34.249 29.1667H65.751L59.9177 6.48491e-09ZM79.1667 50C76.0901 50.0025 73.1215 48.8659 70.8333 46.8094C68.5451 48.8659 65.5766 50.0025 62.5 50H37.5C34.4234 50.0025 31.4549 48.8659 29.1667 46.8094C26.8785 48.8659 23.9099 50.0025 20.8333 50H8.33333C6.91297 49.997 5.50364 49.7504 4.16667 49.2708V95.8333C4.16667 96.9384 4.60565 97.9982 5.38705 98.7796C6.16846 99.561 7.22826 100 8.33333 100H16.6667V62.5C16.6667 61.3949 17.1057 60.3351 17.8871 59.5537C18.6685 58.7723 19.7283 58.3333 20.8333 58.3333H41.6667C42.7717 58.3333 43.8315 58.7723 44.6129 59.5537C45.3943 60.3351 45.8333 61.3949 45.8333 62.5V100H91.6667C92.7717 100 93.8315 99.561 94.6129 98.7796C95.3943 97.9982 95.8333 96.9384 95.8333 95.8333V49.2708C94.4964 49.7504 93.087 49.997 91.6667 50H79.1667ZM83.3333 75C83.3333 76.1051 82.8943 77.1649 82.1129 77.9463C81.3315 78.7277 80.2717 79.1667 79.1667 79.1667H58.3333C57.2283 79.1667 56.1685 78.7277 55.3871 77.9463C54.6057 77.1649 54.1667 76.1051 54.1667 75V62.5C54.1667 61.3949 54.6057 60.3351 55.3871 59.5537C56.1685 58.7723 57.2283 58.3333 58.3333 58.3333H79.1667C80.2717 58.3333 81.3315 58.7723 82.1129 59.5537C82.8943 60.3351 83.3333 61.3949 83.3333 62.5V75Z" fill="black"/>
</g>
<defs>
<clipPath id="clip0_1_1265">
<rect width="100" height="100" fill="white"/>
</clipPath>
</defs>
</svg>
